<svg xmlns="http://www.w3.org/2000/svg" width="16.1" height="13.101" viewBox="0 0 16.1 13.101">
  <g id="Group_78" data-name="Group 78" transform="translate(-158.9 -4934.45)">
    <path id="iconfinder_icon-social-twitter_211920" d="M36.2,65.552a6.678,6.678,0,0,1-1.9.522,3.315,3.315,0,0,0,1.453-1.829,6.563,6.563,0,0,1-2.1.8,3.3,3.3,0,0,0-5.715,2.259,3.234,3.234,0,0,0,.085.754,9.361,9.361,0,0,1-6.81-3.456,3.313,3.313,0,0,0,1.024,4.415,3.224,3.224,0,0,1-1.5-.413v.041A3.306,3.306,0,0,0,23.4,71.888a3.325,3.325,0,0,1-.87.116,3.116,3.116,0,0,1-.621-.061,3.308,3.308,0,0,0,3.088,2.3,6.623,6.623,0,0,1-4.1,1.416,6.7,6.7,0,0,1-.788-.048,9.382,9.382,0,0,0,14.462-7.915c0-.143,0-.287-.01-.426A6.78,6.78,0,0,0,36.2,65.552Z" transform="translate(138.8 4870.45)" fill="#fff"/>
  </g>
</svg>
