<svg xmlns="http://www.w3.org/2000/svg" width="13.182" height="10.727" viewBox="0 0 13.182 10.727">
  <g id="Group_78" data-name="Group 78" transform="translate(0)">
    <path id="iconfinder_icon-social-twitter_211920" d="M33.282,65.271a5.467,5.467,0,0,1-1.553.427,2.714,2.714,0,0,0,1.19-1.5,5.374,5.374,0,0,1-1.718.656,2.7,2.7,0,0,0-4.679,1.849,2.648,2.648,0,0,0,.07.617,7.664,7.664,0,0,1-5.576-2.83,2.712,2.712,0,0,0,.838,3.615,2.639,2.639,0,0,1-1.226-.338V67.8a2.707,2.707,0,0,0,2.17,2.654,2.722,2.722,0,0,1-.712.095,2.551,2.551,0,0,1-.508-.05,2.709,2.709,0,0,0,2.528,1.88,5.422,5.422,0,0,1-3.36,1.159A5.48,5.48,0,0,1,20.1,73.5a7.682,7.682,0,0,0,11.841-6.481c0-.117,0-.235-.008-.349A5.551,5.551,0,0,0,33.282,65.271Z" transform="translate(-20.1 -64)" fill="#fff"/>
  </g>
</svg>
