<svg id="Group_77" data-name="Group 77" xmlns="http://www.w3.org/2000/svg" width="14.082" height="13.455" viewBox="0 0 14.082 13.455">
  <g id="XMLID_12_" transform="translate(0 0)">
    <g id="XMLID_15_" transform="translate(0.192 4.165)">
      <g id="XMLID_16_">
        <g id="XMLID_17_">
          <path id="XMLID_18_" d="M36.591,51.378v4.967a.231.231,0,0,1-.227.227H33.8a.231.231,0,0,1-.227-.227V51.727c0-1.22-.436-2.057-1.534-2.057a1.659,1.659,0,0,0-1.551,1.1,1.908,1.908,0,0,0-.1.732v4.845a.231.231,0,0,1-.227.227H27.615a.231.231,0,0,1-.227-.227c0-1.237.035-7.216,0-8.61a.231.231,0,0,1,.227-.227h2.562a.231.231,0,0,1,.227.227V48.8c0,.017-.017.017-.017.035H30.4V48.8a3.008,3.008,0,0,1,2.719-1.5c1.987,0,3.468,1.307,3.468,4.078ZM22.927,56.59h2.562a.231.231,0,0,0,.227-.227V47.736a.231.231,0,0,0-.227-.227H22.927a.231.231,0,0,0-.227.227v8.627A.244.244,0,0,0,22.927,56.59Z" transform="translate(-22.7 -47.3)" fill="#fff"/>
        </g>
      </g>
    </g>
    <g id="XMLID_13_">
      <circle id="XMLID_14_" cx="1.621" cy="1.621" r="1.621" transform="translate(0 0)" fill="#fff"/>
    </g>
  </g>
</svg>
