<svg id="Group_76" data-name="Group 76" xmlns="http://www.w3.org/2000/svg" width="17.78" height="13.183" viewBox="0 0 17.78 13.183">
  <g id="iconfinder__youtube_video_2559760" transform="translate(0 0)">
    <path id="Path_7" data-name="Path 7" d="M18.181,6.447a3.946,3.946,0,0,0-.775-1.939,2.426,2.426,0,0,0-1.861-.853h-.078C13.063,3.5,9.5,3.5,9.418,3.5c0,0-3.645,0-6.049.155H3.292a2.426,2.426,0,0,0-1.861.853A4.432,4.432,0,0,0,.655,6.524C.655,6.6.5,8,.5,9.471v1.318c0,1.473.155,2.869.155,2.947a3.946,3.946,0,0,0,.775,1.939,2.836,2.836,0,0,0,1.861.853h.233c1.4.155,5.661.155,5.816.155h0s3.645,0,6.049-.155h.078a3.176,3.176,0,0,0,1.861-.853,4.432,4.432,0,0,0,.775-2.016c0-.078.155-1.473.155-2.947V9.394A22.949,22.949,0,0,0,18.181,6.447Zm-5.739,3.8L7.789,12.728c-.078,0-.078.078-.155.078s-.155,0-.155-.078a.4.4,0,0,1-.155-.31V7.377a.4.4,0,0,1,.155-.31.346.346,0,0,1,.388,0L12.52,9.549c.155.078.233.155.233.31A.515.515,0,0,1,12.442,10.247Z" transform="translate(-0.5 -3.5)" fill="#fff"/>
  </g>
</svg>
