<svg xmlns="http://www.w3.org/2000/svg" width="16.056" height="14.5" viewBox="0 0 16.056 14.5">
  <g id="Group_120" data-name="Group 120" transform="translate(0.25 0.25)">
    <g id="Page-1">
      <g id="icon-70-document-file-pdf">
        <path id="document-file-pdf" d="M11.852,8.185V6.63h0L8.741,3h-5.7A1.04,1.04,0,0,0,2,4.041V15.96A1.037,1.037,0,0,0,3.036,17h7.781a1.036,1.036,0,0,0,1.036-1.032V14.926H16a1.557,1.557,0,0,0,1.559-1.555V9.74A1.554,1.554,0,0,0,16,8.185Zm-.519,6.741v1.041a.517.517,0,0,1-.519.515H3.037a.52.52,0,0,1-.519-.516V4.035a.519.519,0,0,1,.516-.516H8.222v2.59a1.034,1.034,0,0,0,1.036,1.04h2.075V8.185H7.189A1.557,1.557,0,0,0,5.63,9.74v3.631a1.554,1.554,0,0,0,1.559,1.555ZM8.741,3.778V6.107a.521.521,0,0,0,.517.523h1.92L8.741,3.778ZM7.183,8.7A1.036,1.036,0,0,0,6.148,9.737v3.638a1.037,1.037,0,0,0,1.034,1.033H16a1.036,1.036,0,0,0,1.034-1.033V9.737A1.037,1.037,0,0,0,16,8.7ZM13.926,11.3V10.26H16V9.741H13.408v3.63h.519V11.815h1.556V11.3Zm-6.741-.519v2.593H7.7V11.815H8.738a1.037,1.037,0,1,0,0-2.074H7.185v1.037ZM7.7,10.26V11.3H8.742a.519.519,0,0,0,0-1.037ZM10.3,9.741v3.63H11.85a1.036,1.036,0,0,0,1.04-1.04v-1.55a1.039,1.039,0,0,0-1.04-1.04Zm.519.519v2.593h1.038a.517.517,0,0,0,.518-.518V10.778a.517.517,0,0,0-.518-.518Z" transform="translate(-2 -3)" fill="#fff" stroke="#fff" stroke-width="0.5" fill-rule="evenodd"/>
      </g>
    </g>
  </g>
</svg>
