<svg xmlns="http://www.w3.org/2000/svg" width="21.716" height="16.102" viewBox="0 0 21.716 16.102">
  <g id="Group_76" data-name="Group 76" transform="translate(-264.606 -4932.449)">
    <g id="iconfinder__youtube_video_2559760" transform="translate(264.106 4928.949)">
      <path id="Path_7" data-name="Path 7" d="M22.1,7.1a4.819,4.819,0,0,0-.947-2.368,2.963,2.963,0,0,0-2.273-1.042H18.78C15.844,3.5,11.487,3.5,11.392,3.5c0,0-4.452,0-7.388.189H3.91A2.963,2.963,0,0,0,1.637,4.731,5.413,5.413,0,0,0,.689,7.194c0,.095-.189,1.8-.189,3.6V12.4c0,1.8.189,3.5.189,3.6a4.819,4.819,0,0,0,.947,2.368A3.463,3.463,0,0,0,3.91,19.412h.284c1.7.189,6.914.189,7.1.189h0s4.452,0,7.388-.189h.095a3.879,3.879,0,0,0,2.273-1.042A5.413,5.413,0,0,0,22,15.908c0-.095.189-1.8.189-3.6V10.7A28.029,28.029,0,0,0,22.1,7.1ZM15.086,11.74,9.4,14.771c-.095,0-.095.095-.189.095s-.189,0-.189-.095a.492.492,0,0,1-.189-.379V8.236a.492.492,0,0,1,.189-.379.423.423,0,0,1,.474,0l5.683,3.031c.189.095.284.189.284.379A.629.629,0,0,1,15.086,11.74Z" fill="#fff"/>
    </g>
  </g>
</svg>
