<svg xmlns="http://www.w3.org/2000/svg" width="17.2" height="16.434" viewBox="0 0 17.2 16.434">
  <g id="Group_77" data-name="Group 77" transform="translate(-213.4 -4931.117)">
    <g id="XMLID_12_" transform="translate(191.8 4907.717)">
      <g id="XMLID_15_" transform="translate(21.834 28.488)">
        <g id="XMLID_16_">
          <g id="XMLID_17_">
            <path id="XMLID_18_" d="M39.666,52.281v6.067a.282.282,0,0,1-.277.277H36.26a.282.282,0,0,1-.277-.277V52.707c0-1.49-.532-2.512-1.873-2.512a2.027,2.027,0,0,0-1.895,1.341,2.33,2.33,0,0,0-.128.894v5.918a.282.282,0,0,1-.277.277H28.7a.282.282,0,0,1-.277-.277c0-1.511.043-8.813,0-10.516a.282.282,0,0,1,.277-.277h3.129a.282.282,0,0,1,.277.277v1.3c0,.021-.021.021-.021.043h.021v-.043A3.674,3.674,0,0,1,35.43,47.3c2.427,0,4.236,1.6,4.236,4.981ZM22.977,58.646h3.129a.282.282,0,0,0,.277-.277V47.832a.282.282,0,0,0-.277-.277H22.977a.282.282,0,0,0-.277.277V58.369A.3.3,0,0,0,22.977,58.646Z" transform="translate(-22.7 -47.3)" fill="#fff"/>
          </g>
        </g>
      </g>
      <g id="XMLID_13_" transform="translate(21.6 23.4)">
        <circle id="XMLID_14_" cx="1.98" cy="1.98" r="1.98" transform="translate(0 0)" fill="#fff"/>
      </g>
    </g>
  </g>
</svg>
