<svg id="iconfinder___Letter_1904660" xmlns="http://www.w3.org/2000/svg" width="29.156" height="20.5" viewBox="0 0 29.156 20.5">
  <path id="Path_1" data-name="Path 1" d="M34.836,30.76a.683.683,0,0,0-.957-.139L22.857,38.849a.228.228,0,0,1-.273,0L11.778,30.585a.683.683,0,0,0-.829,1.087l8.5,6.5-8.4,6.332a.688.688,0,0,0,.822,1.1l8.708-6.574,1.18.911a1.594,1.594,0,0,0,1.92.014l1.239-.925,8.81,6.574a.684.684,0,0,0,.818-1.1l-8.487-6.341L34.7,31.71A.683.683,0,0,0,34.836,30.76Z" transform="translate(-8.247 -27.838)" fill="#fff"/>
  <path id="Path_2" data-name="Path 2" d="M25.739,19H3.417A3.417,3.417,0,0,0,0,22.417V36.083A3.417,3.417,0,0,0,3.417,39.5H25.739a3.417,3.417,0,0,0,3.417-3.417V22.417A3.417,3.417,0,0,0,25.739,19Zm2.05,17.083a2.05,2.05,0,0,1-2.05,2.05H3.417a2.05,2.05,0,0,1-2.05-2.05V22.417a2.05,2.05,0,0,1,2.05-2.05H25.739a2.05,2.05,0,0,1,2.05,2.05Z" transform="translate(0 -19)" fill="#fff"/>
</svg>
