<svg xmlns="http://www.w3.org/2000/svg" width="19.5" height="17.6" viewBox="0 0 19.5 17.6">
  <g id="Page-1" transform="translate(-1.75 -2.75)">
    <g id="icon-70-document-file-pdf" transform="translate(2 3)">
      <path id="document-file-pdf" d="M14.033,9.333v-1.9h0L10.233,3H3.268A1.27,1.27,0,0,0,2,4.271V18.829A1.267,1.267,0,0,0,3.265,20.1h9.5a1.266,1.266,0,0,0,1.265-1.261V17.567H19.1a1.9,1.9,0,0,0,1.9-1.9V11.233a1.9,1.9,0,0,0-1.9-1.9ZM13.4,17.567v1.271a.631.631,0,0,1-.633.629h-9.5a.635.635,0,0,1-.633-.63V4.264a.634.634,0,0,1,.631-.63H9.6V6.8a1.263,1.263,0,0,0,1.265,1.27H13.4V9.333H8.338a1.9,1.9,0,0,0-1.9,1.9v4.435a1.9,1.9,0,0,0,1.9,1.9ZM10.233,3.95V6.794a.637.637,0,0,0,.631.639H13.21L10.233,3.95ZM8.33,9.967a1.266,1.266,0,0,0-1.263,1.262v4.443A1.266,1.266,0,0,0,8.33,16.933H19.1a1.266,1.266,0,0,0,1.263-1.262V11.228A1.266,1.266,0,0,0,19.1,9.967Zm8.237,3.167V11.867H19.1v-.633H15.933v4.433h.633v-1.9h1.9v-.633ZM8.333,12.5v3.167h.633v-1.9H10.23a1.267,1.267,0,1,0,0-2.533h-1.9V12.5Zm.633-.633v1.267h1.267a.633.633,0,0,0,0-1.267Zm3.167-.633v4.433h1.9A1.265,1.265,0,0,0,15.3,14.4V12.5a1.269,1.269,0,0,0-1.27-1.27Zm.633.633v3.167h1.267a.631.631,0,0,0,.633-.633V12.5a.631.631,0,0,0-.633-.633Z" transform="translate(-2 -3)" fill="#fff" stroke="#fff" stroke-width="0.5" fill-rule="evenodd"/>
    </g>
  </g>
</svg>
