<svg xmlns="http://www.w3.org/2000/svg" width="24.152" height="34" viewBox="0 0 24.152 34">
  <g id="iconfinder_location_1814106" transform="translate(0)">
    <g id="Icon-Location">
      <path id="Fill-55" d="M-204.724-333.6l-.647-.791c-.431-.575-11.429-13.442-11.429-21.133A12.1,12.1,0,0,1-204.724-367.6a12.149,12.149,0,0,1,12.076,12.076c0,7.691-11,20.63-11.429,21.133l-.647.791Zm0-32.347A10.354,10.354,0,0,0-215.075-355.6c0,6.038,7.979,16.317,10.351,19.264,2.372-2.947,10.351-13.154,10.351-19.264a10.354,10.354,0,0,0-10.351-10.351Z" transform="translate(216.8 367.6)" fill="#fff"/>
      <path id="Fill-56" d="M-201.8-348a4.633,4.633,0,0,1-4.6-4.6,4.633,4.633,0,0,1,4.6-4.6,4.633,4.633,0,0,1,4.6,4.6,4.633,4.633,0,0,1-4.6,4.6Zm0-7.476a2.884,2.884,0,0,0-2.875,2.875,2.884,2.884,0,0,0,2.875,2.875,2.884,2.884,0,0,0,2.875-2.875,2.884,2.884,0,0,0-2.875-2.875Z" transform="translate(213.876 364.676)" fill="#fff"/>
    </g>
  </g>
</svg>
