<svg xmlns="http://www.w3.org/2000/svg" width="20.188" height="34" viewBox="0 0 20.188 34">
  <g id="iconfinder___Phone_1904669" transform="translate(0)">
    <path id="Path_3" data-name="Path 3" d="M43.266,0H28.922A2.922,2.922,0,0,0,26,2.922V31.078A2.922,2.922,0,0,0,28.922,34H43.266a2.922,2.922,0,0,0,2.922-2.922V2.922A2.922,2.922,0,0,0,43.266,0ZM27.594,6.027h17V26.451h-17Zm1.328-4.433H43.266a1.328,1.328,0,0,1,1.328,1.328V4.433h-17V2.922A1.328,1.328,0,0,1,28.922,1.594ZM43.266,32.406H28.922a1.328,1.328,0,0,1-1.328-1.328V28.045h17v3.033A1.328,1.328,0,0,1,43.266,32.406Z" transform="translate(-26)" fill="#fff"/>
    <circle id="Ellipse_1" data-name="Ellipse 1" cx="1.594" cy="1.594" r="1.594" transform="translate(8.5 28.664)" fill="#fff"/>
    <path id="Path_4" data-name="Path 4" d="M53.927,9.814H58.11a.8.8,0,1,0,0-1.594H53.927a.8.8,0,0,0,0,1.594Z" transform="translate(-45.924 -6.037)" fill="#fff"/>
  </g>
</svg>
